:FULLY-SPECIFIED
:FORCE-ALL-JOINTS-BE-3DOF
:DEGREES
81
root 9.32172 16.3836 -25.4414 3.92681 -7.7073 2.53901
lfemur -15.6334 2.91843 -27.3137
ltibia 27.3021 0 0
lfoot -15.2714 9.43385 0
ltoes -0.983449 0 0
rfemur -22.2135 0.397769 17.8698
rtibia 61.8812 0 0
rfoot -16.1038 -12.4976 0
rtoes -12.2039 0 0
lowerback -4.85464 -1.03674 -3.75433
upperback -1.39372 -1.24084 2.45076
thorax 1.42012 -0.629267 4.56734
lowerneck -22.3668 -4.10913 -11.5218
upperneck 19.3841 -4.69593 11.6653
head 10.4716 -1.64612 5.40955
lclavicle -1.73403e-14 4.12291e-16 0
lhumerus -27.3053 -12.7304 87.2307
lradius 26.2673 0 0
lwrist 0.946428 0 0
lhand -3.1373 -17.7912 0
lfingers 7.12502 0 0
lthumb 22.5739 10.8133 0
rclavicle -1.73403e-14 4.12291e-16 0
rhumerus -43.7379 13.508 -88.991
rradius 40.1552 0 0
rwrist -22.0397 0 0
rhand -30.9586 -23.9091 0
rfingers 7.12502 0 0
rthumb -4.24315 -53.8467 0
82
root 9.33301 16.3703 -25.2579 3.83721 -7.34369 2.70463
lfemur -14.7364 2.64624 -27.5902
ltibia 27.1564 0 0
lfoot -15.7217 9.40488 0
ltoes -1.83656 0 0
rfemur -23.6984 0.91118 17.8926
rtibia 60.8428 0 0
rfoot -17.1671 -12.6732 0
rtoes -12.1762 0 0
lowerback -4.97264 -1.11659 -3.90876
upperback -1.27982 -1.33551 2.43236
thorax 1.61666 -0.683852 4.62704
lowerneck -22.5302 -4.18711 -11.6959
upperneck 19.6268 -4.75963 11.7132
head 10.6044 -1.67921 5.45721
lclavicle -1.72391e-14 -1.44119e-15 0
lhumerus -26.3445 -13.5678 87.1447
lradius 27.2313 0 0
lwrist 2.01313 0 0
lhand -6.03339 -20.0029 0
lfingers 7.12502 0 0
lthumb 19.7923 8.91456 0
rclavicle -1.72391e-14 -1.44119e-15 0
rhumerus -43.6712 13.47 -88.8064
rradius 40.0327 0 0
rwrist -21.993 0 0
rhand -30.9452 -23.9513 0
rfingers 7.12502 0 0
rthumb -4.23026 -53.889 0
83
root 9.34131 16.3592 -25.1127 3.77576 -7.06191 2.83889
lfemur -14.0448 2.43458 -27.813
ltibia 27.0592 0 0
lfoot -16.0502 9.37975 0
ltoes -2.68919 0 0
rfemur -24.8896 1.34506 17.9067
rtibia 59.9893 0 0
rfoot -17.9556 -12.8142 0
rtoes -12.088 0 0
lowerback -5.07769 -1.17779 -4.04035
upperback -1.18544 -1.40694 2.41667
thorax 1.783 -0.72573 4.67853
lowerneck -22.6929 -4.25003 -11.8453
upperneck 19.8323 -4.80958 11.7699
head 10.7213 -1.70299 5.50474
lclavicle -1.7505e-14 -3.23945e-15 0
lhumerus -25.5797 -14.2576 87.0804
lradius 28.0248 0 0
lwrist 2.9101 0 0
lhand -8.61302 -21.9978 0
lfingers 7.12502 0 0
lthumb 17.3147 7.19984 0
rclavicle -1.7505e-14 -3.23945e-15 0
rhumerus -43.5959 13.4328 -88.656
rradius 39.916 0 0
rwrist -21.9395 0 0
rhand -30.9371 -23.9844 0
rfingers 7.12502 0 0
rthumb -4.22235 -53.9222 0
84
root 9.34486 16.3533 -25.0441 3.74932 -6.94479 2.91426
lfemur -13.7337 2.32396 -27.9339
ltibia 27.0422 0 0
lfoot -16.174 9.38848 0
ltoes -3.31941 0 0
rfemur -25.486 1.58556 17.9144
rtibia 59.5957 0 0
rfoot -18.311 -12.9002 0
rtoes -11.9132 0 0
lowerback -5.13316 -1.20403 -4.12236
upperback -1.12979 -1.43591 2.40604
thorax 1.87612 -0.743784 4.71112
lowerneck -22.8281 -4.27816 -11.9226
upperneck 19.9519 -4.82831 11.8155
head 10.7955 -1.70868 5.53739
lclavicle -1.8028e-14 -4.70641e-15 0
lhumerus -25.1894 -14.6082 87.0441
lradius 28.4309 0 0
lwrist 3.38983 0 0
lhand -10.2107 -23.2596 0
lfingers 7.12502 0 0
lthumb 15.7805 6.11379 0
rclavicle -1.8028e-14 -4.70641e-15 0
rhumerus -43.5256 13.4177 -88.5803
rradius 39.8468 0 0
rwrist -21.9042 0 0
rhand -30.9532 -24.0228 0
rfingers 7.12502 0 0
rthumb -4.23789 -53.9603 0
85
root 9.34185 16.3555 -25.0904 3.76477 -7.07516 2.90322
lfemur -13.9785 2.35489 -27.9044
ltibia 27.1369 0 0
lfoot -16.0104 9.46108 0
ltoes -3.5053 0 0
rfemur -25.1862 1.51882 17.9179
rtibia 59.9367 0 0
rfoot -18.0752 -12.9112 0
rtoes -11.6259 0 0
lowerback -5.1024 -1.17897 -4.12802
upperback -1.1321 -1.40317 2.40285
thorax 1.85304 -0.726898 4.71409
lowerneck -22.9087 -4.25176 -11.8803
upperneck 19.9369 -4.79835 11.8303
head 10.8001 -1.68749 5.54042
lclavicle -1.86982e-14 -5.56597e-15 0
lhumerus -25.3521 -14.428 87.0421
lradius 28.2328 0 0
lwrist 3.2048 0 0
lhand -10.161 -23.2719 0
lfingers 7.12502 0 0
lthumb 15.8286 6.10104 0
rclavicle -1.86982e-14 -5.56597e-15 0
rhumerus -43.4737 13.4457 -88.6201
rradius 39.8671 0 0
rwrist -21.9118 0 0
rhand -31.0127 -24.0807 0
rfingers 7.12502 0 0
rthumb -4.29536 -54.0172 0
86
root 9.3502 16.3469 -24.9396 3.72808 -6.66844 2.96388
lfemur -13.2048 2.23417 -28.0297
ltibia 26.8522 0 0
lfoot -16.4449 9.24991 0
ltoes -3.40215 0 0
rfemur -26.2033 1.80663 17.8825
rtibia 58.7704 0 0
rfoot -18.7138 -12.8798 0
rtoes -12.306 0 0
lowerback -5.23253 -1.25649 -4.15155
upperback -1.09751 -1.50091 2.40426
thorax 1.97295 -0.779346 4.71878
lowerneck -22.7604 -4.33531 -12.032
upperneck 20.0201 -4.88739 11.8234
head 10.8191 -1.7456 5.55178
lclavicle -1.75389e-14 -3.78795e-15 0
lhumerus -24.7847 -15.0887 87.0475
lradius 28.9547 0 0
lwrist 3.92864 0 0
lhand -11.1351 -23.9092 0
lfingers 7.12502 0 0
lthumb 14.892 5.55657 0
rclavicle -1.75389e-14 -3.78795e-15 0
rhumerus -43.5579 13.3418 -88.4772
rradius 39.752 0 0
rwrist -21.8578 0 0
rhand -30.863 -23.9392 0
rfingers 7.12502 0 0
rthumb -4.15075 -53.8783 0
